PathFileType	4	(X/Y/Z)	C:/Users/opensim2020/Desktop/walking_exp_matlab/subject02_walking11_straight_01.trc	
DataRate	CameraRate	NumFrames	NumMarkers	Units	OrigDataRate	OrigDataStartFrame	OrigNumFrames	
100.00	100.00	7	42	mm	100.00	834	267	
Frame#	Time	LFHD			RFHD			LBHD			RBHD			C7			T10			CLAV			STRN			RBAK			LSHO			LUPA			LELB			LFRM			LWRA			LWRB			LFIN			RSHO			RUPA			RELB			RFRM			RWRA			RWRB			RFIN			LASI			RASI			LPSI			RPSI			LTHI			LKNE			LTIB			LANK			LHEE			LTOE			RTHI			RKNE			RTIB			RANK			RHEE			RTOE			*39			*40			*41			
		X1	Y1	Z1	X2	Y2	Z2	X3	Y3	Z3	X4	Y4	Z4	X5	Y5	Z5	X6	Y6	Z6	X7	Y7	Z7	X8	Y8	Z8	X9	Y9	Z9	X10	Y10	Z10	X11	Y11	Z11	X12	Y12	Z12	X13	Y13	Z13	X14	Y14	Z14	X15	Y15	Z15	X16	Y16	Z16	X17	Y17	Z17	X18	Y18	Z18	X19	Y19	Z19	X20	Y20	Z20	X21	Y21	Z21	X22	Y22	Z22	X23	Y23	Z23	X24	Y24	Z24	X25	Y25	Z25	X26	Y26	Z26	X27	Y27	Z27	X28	Y28	Z28	X29	Y29	Z29	X30	Y30	Z30	X31	Y31	Z31	X32	Y32	Z32	X33	Y33	Z33	X34	Y34	Z34	X35	Y35	Z35	X36	Y36	Z36	X37	Y37	Z37	X38	Y38	Z38	X39	Y39	Z39	X40	Y40	Z40	X41	Y41	Z41	X42	Y42	Z42	

101	1.000	1381.67554	-477.56940	1749.13586	1523.86218	-465.70853	1726.10706	1373.11670	-576.53033	1636.45618	1513.73022	-576.72498	1608.03345	1431.84888	-598.64197	1511.89624	1432.81567	-659.45966	1241.50793	1423.54321	-461.10568	1444.15881	1428.82141	-414.62469	1268.08655	1489.88110	-662.24139	1341.93420	1253.49634	-516.98248	1492.27893	1162.55396	-486.28497	1298.51843	1143.73682	-443.39236	1162.60266	1144.09802	-371.87955	1049.27393	1196.18640	-270.83426	969.20697	1156.63708	-304.73950	947.13403	1159.24109	-254.69527	904.44147	1619.90784	-524.64490	1472.71021	1699.17529	-570.94391	1285.39636	1717.14392	-570.71649	1139.26514	1738.67908	-545.89813	1021.30103	1721.31689	-498.47806	894.01611	1750.22339	-546.73560	891.03052	1755.35449	-510.01437	828.66632	1294.13611	-443.74826	972.16229	1550.41895	-429.70340	965.96643	1386.13257	-647.82129	1020.76447	1500.56641	-647.58185	1019.21436	1264.58228	-547.54901	662.70209	1304.62756	-607.71643	467.85294	1314.19592	-694.34052	292.16888	1361.02942	-722.52997	71.31117	1414.28333	-759.72443	46.64526	1342.87048	-568.59845	29.74632	1639.85095	-449.75287	670.64856	1608.29126	-374.61307	475.96548	1626.14380	-347.38864	292.97696	1606.18457	-286.22629	105.42760	1549.78992	-292.17343	42.90379	1628.29541	-124.15981	98.49652	1477.41150	-590.78876	1773.88281	-3356.92725	2845.75220	1034.22034			 
102	1.010	1383.00012	-469.07919	1748.04773	1525.20093	-457.21796	1724.92163	1374.37122	-567.96289	1635.34448	1514.95544	-568.20148	1606.87830	1433.01050	-590.13910	1510.83118	1434.02527	-650.69904	1240.32788	1424.54565	-452.55899	1442.96558	1429.49255	-406.08194	1266.94910	1491.04456	-653.70837	1341.03955	1254.50366	-508.50760	1491.30237	1163.45837	-478.27972	1297.47498	1145.01306	-434.64792	1161.69995	1145.59070	-362.29819	1048.83789	1197.60974	-260.33740	970.15222	1158.57117	-294.25168	947.48944	1161.13586	-243.54419	905.56537	1620.94434	-516.19720	1471.20471	1699.88867	-563.06934	1283.95410	1717.74121	-563.43939	1138.01697	1739.29272	-539.38611	1019.86029	1722.13110	-492.68198	892.40491	1750.94873	-541.12146	889.57831	1755.98157	-504.85196	826.75861	1294.11243	-436.01996	970.82611	1550.23669	-420.99878	964.39716	1387.63269	-639.47845	1019.66150	1502.10632	-638.62695	1018.29803	1265.07178	-541.73248	661.97778	1304.97156	-603.19342	467.63947	1314.53430	-691.91260	292.92172	1361.17834	-722.05560	72.10648	1414.21753	-759.22919	47.27183	1342.76514	-568.49078	29.66086	1639.74866	-441.28809	669.16968	1607.44153	-365.34036	474.81219	1625.22107	-334.92682	292.26193	1605.88086	-270.29355	106.05669	1549.93713	-275.87723	43.70034	1626.88574	-107.77969	101.54585	1478.69861	-582.33105	1772.69385	-3360.34180	2845.26587	1034.24695			 
103	1.020	1384.48389	-460.35297	1746.97131	1526.54602	-448.67166	1723.79358	1375.70593	-559.30908	1634.26343	1516.26587	-559.64142	1605.69702	1434.20837	-581.47858	1509.72766	1435.29749	-642.21301	1239.32483	1425.63049	-443.95557	1441.85242	1430.25159	-397.47598	1265.77747	1492.10754	-645.14825	1339.92651	1255.60767	-499.98889	1490.31775	1164.63062	-469.94806	1296.37476	1146.15039	-426.25037	1160.60681	1147.34741	-352.87851	1048.41418	1199.26904	-250.15440	970.91479	1160.65198	-284.14307	947.61243	1162.96167	-233.12340	906.39038	1622.16077	-507.61121	1469.77051	1700.71765	-555.13623	1282.55176	1718.40320	-556.04785	1136.66589	1739.98584	-532.72882	1018.34753	1722.86499	-486.90198	890.50879	1751.85815	-535.28687	888.19257	1756.85498	-499.72845	825.01978	1294.25122	-428.03473	969.50958	1550.59424	-411.42639	963.12854	1389.27698	-631.11932	1018.59198	1503.72278	-629.64813	1017.38580	1265.47058	-536.12469	661.58038	1305.31140	-598.41956	467.43884	1315.01929	-689.08820	293.67615	1361.26306	-721.70825	73.03397	1414.55151	-758.78265	48.70070	1342.65283	-568.48254	29.61485	1639.85571	-431.99860	667.88416	1606.60315	-355.67273	473.70538	1624.64343	-323.10437	291.85831	1605.17737	-256.26709	106.41517	1549.09790	-261.24918	43.77561	1625.67603	-93.51035	103.25790	1480.17859	-573.82556	1771.61499	-3357.02661	2846.01367	1034.14807			 
104	1.030	1385.98401	-451.72296	1746.00183	1528.03394	-440.04776	1722.66785	1377.10181	-550.80841	1633.24231	1517.63916	-550.98419	1604.57678	1435.52405	-572.81042	1508.67749	1436.63525	-633.35815	1238.18811	1426.74182	-435.27402	1440.72693	1431.04822	-388.74585	1264.70679	1492.94739	-636.36664	1338.46960	1256.81287	-491.38895	1489.43970	1165.89343	-461.25742	1295.43787	1147.48511	-417.99570	1159.58484	1149.02576	-343.93781	1047.51672	1200.87012	-240.48929	971.44855	1162.72375	-274.45187	947.52734	1164.94727	-223.00194	906.90692	1623.40784	-499.04880	1468.37354	1701.33984	-547.36133	1281.03735	1719.17285	-548.55591	1135.37573	1740.88550	-526.06677	1016.99725	1723.75732	-480.89639	888.81952	1752.60132	-529.42902	886.75580	1757.66565	-494.22675	823.43256	1294.56250	-419.83801	968.21838	1550.82983	-402.18430	961.78009	1390.92566	-622.55701	1017.51587	1505.31299	-620.54651	1016.50775	1265.98230	-529.96722	660.78552	1305.62488	-593.40906	467.20575	1315.29651	-686.19183	294.51895	1361.28687	-721.19562	74.03291	1414.60254	-758.49200	50.11980	1342.54712	-568.60449	29.63429	1640.22510	-421.82162	666.96173	1606.27991	-345.18124	473.07440	1623.86926	-311.54434	291.40488	1603.96436	-244.24011	106.24969	1547.27710	-248.91522	43.50619	1624.22876	-81.34014	103.14371	1481.71729	-565.25983	1770.50671	-3360.24341	2845.30249	1034.16638			 
105	1.040	1387.59241	-443.11279	1745.02014	1529.62866	-431.40329	1721.60657	1378.60852	-542.16016	1632.20300	1519.16333	-542.31171	1603.45520	1436.90100	-564.02716	1507.61169	1438.07190	-624.37811	1237.09155	1428.00806	-426.49374	1439.68921	1431.92493	-379.90100	1263.64246	1494.24377	-627.57465	1337.34033	1258.08203	-482.74164	1488.58545	1167.39075	-453.50562	1294.37341	1148.89539	-410.01355	1158.54846	1150.68274	-335.16602	1046.90686	1202.66614	-231.24800	971.69861	1164.76990	-265.27206	947.31421	1166.90125	-213.51013	907.11230	1624.80847	-490.12866	1467.07227	1702.66943	-539.16968	1279.92065	1720.02441	-540.92932	1134.08398	1741.91980	-519.08588	1015.74103	1724.59253	-474.90897	886.96729	1753.54285	-523.40704	885.41229	1758.62573	-488.58853	821.87256	1295.12305	-411.37366	967.15100	1551.08582	-393.03036	960.37231	1392.64148	-613.91632	1016.49109	1506.98682	-611.37329	1015.67206	1266.51257	-523.71826	660.29156	1305.93469	-588.19250	467.02551	1315.52100	-682.89532	295.27817	1361.11646	-720.70209	75.17442	1414.76111	-758.16522	51.71770	1342.24011	-568.43207	29.60068	1640.89099	-410.83218	666.25055	1606.23230	-334.30005	472.67166	1623.20837	-300.72113	290.80280	1602.41833	-233.97719	105.63531	1545.73584	-238.93640	43.34614	1622.90222	-71.26707	101.68504	1483.29724	-556.62439	1769.33704	-3357.19702	2845.84082	1034.14502			 
106	1.050	1389.27649	-434.50296	1744.11609	1531.24194	-422.68781	1720.60754	1380.23572	-533.41180	1631.20313	1520.75366	-533.55206	1602.38403	1438.40588	-555.20923	1506.65234	1439.51782	-615.27185	1235.92139	1429.32153	-417.65280	1438.70215	1432.96155	-370.95404	1262.68420	1495.67957	-618.31146	1336.25366	1259.45996	-474.06070	1487.74780	1168.65051	-445.18958	1293.52954	1150.67285	-402.00897	1157.24121	1152.40759	-327.17215	1046.28894	1204.40723	-222.37834	971.59894	1166.83765	-256.47119	946.83008	1168.87207	-204.48624	907.03058	1626.30066	-481.19931	1465.63684	1703.61646	-530.88141	1278.62512	1720.91187	-533.21460	1132.77637	1742.66968	-512.16113	1014.27075	1725.66138	-468.67059	885.42224	1754.59143	-517.06403	884.18372	1759.72998	-482.81097	820.44672	1295.70227	-403.02936	965.83319	1551.88306	-383.09531	959.41620	1394.38879	-605.08087	1015.51978	1508.60791	-602.02386	1014.82385	1267.22241	-517.16748	659.70844	1306.28455	-582.71613	466.83145	1315.78662	-679.72504	296.47089	1360.91016	-720.26672	76.59389	1414.24341	-757.86426	53.50914	1342.15869	-568.52283	29.64224	1641.88208	-399.31302	665.80267	1606.16748	-322.65408	472.50937	1622.51184	-290.55875	290.06998	1600.64758	-225.42169	104.57272	1543.62573	-230.80986	42.71549	1621.41040	-63.08801	99.17680	1485.00867	-547.99463	1768.32251	-3360.40259	2845.20020	1034.16431			 
107	1.060	1391.07703	-425.93042	1743.37939	1532.97266	-413.96814	1719.64380	1381.95349	-524.61786	1630.30688	1522.42688	-524.75262	1601.37012	1440.04602	-546.33087	1505.67188	1441.11133	-606.24316	1234.99963	1430.78699	-408.68594	1437.79565	1434.08411	-361.85806	1261.85071	1497.26941	-609.61542	1335.40515	1260.89038	-465.55801	1487.22534	1170.35583	-437.16406	1292.47009	1152.24756	-394.15137	1156.11633	1154.27307	-319.10593	1045.29968	1206.22241	-214.05017	971.33630	1168.90771	-248.21129	946.10449	1171.07593	-196.12698	906.40546	1627.75281	-472.39423	1464.50635	1704.53357	-522.80591	1277.34070	1721.95374	-525.41449	1131.79565	1743.70386	-505.00089	1012.94037	1726.92334	-462.05237	884.15643	1755.46692	-510.74887	882.93262	1760.82434	-476.71628	819.08435	1296.55981	-394.33072	964.67249	1552.47839	-373.60242	958.23865	1396.12610	-595.97711	1014.54138	1510.27869	-592.53278	1013.93689	1267.96216	-510.02646	658.92487	1306.69019	-577.07239	466.73853	1316.01196	-676.24225	297.60065	1360.58777	-719.55676	77.89651	1414.01965	-757.63239	55.75816	1341.97778	-568.42609	29.56158	1643.18860	-387.05853	665.76251	1606.54846	-311.74600	472.12833	1621.57300	-281.35684	289.01883	1598.76892	-218.25635	103.11929	1541.33142	-224.12704	41.57629	1620.11560	-56.01238	96.14572	1486.64124	-539.45966	1767.15637	-3357.21240	2845.84766	1034.38000			 
